# xmcd
#
# Track frame offsets:
#	183
#	25543
#	45680
#	65800
#	83940
#	105753
#	121065
#	137810
#	158950
#	176380
#	191148
#	210475
#
# Disc length: 3086 seconds
#
# Revision: 0
# Processed by: cddbd v1.5.2PL0 Copyright (c) Steve Scherf et al.
# Submitted via: MusicWizard 7.1.1b
#
DISCID=9a0c0c0c
DTITLE=Various Artist - Along The Road
DYEAR=1900
DGENRE=Country
TTITLE0=Christine Denté - Angels
TTITLE1=Susan Ashton - Song Of Reconciliation
TTITLE2=Margaret Becker - No Other
TTITLE3=Susan Ashton - Walk On
TTITLE4=Christine Denté - Breathe On Me
TTITLE5=Margaret Becker - Blessing In Disguise
TTITLE6=Christine Denté - Taking My Time
TTITLE7=Susan Ashton - Near To You
TTITLE8=Margaret Becker - Oh Me Of Little Faith
TTITLE9=Christine Denté - What Am I
TTITLE10=Susan Ashton - Waiting To Be Found
TTITLE11=Margaret Becker - Along The Road
EXTD=
EXTT0=
EXTT1=
EXTT2=
EXTT3=
EXTT4=
EXTT5=
EXTT6=
EXTT7=
EXTT8=
EXTT9=
EXTT10=
EXTT11=
PLAYORDER=
